<svg width="19" height="15" viewBox="0 0 19 15" fill="none" xmlns="http://www.w3.org/2000/svg">
<path d="M18.6289 5.46289C17.7383 6.16797 15.8086 7.57812 12.9141 9.65625L12.543 9.95312C11.9492 10.3984 11.5039 10.7324 11.1328 10.918C10.5391 11.2891 9.98242 11.4375 9.5 11.4375C8.98047 11.4375 8.46094 11.2891 7.86719 10.9551C7.49609 10.7695 7.05078 10.4355 6.45703 9.99023L6.08594 9.65625C3.08008 7.50391 1.1875 6.09375 0.371094 5.46289C0.296875 5.42578 0.185547 5.42578 0.111328 5.46289C0.0371094 5.5 0 5.57422 0 5.64844V13.2188C0 13.7383 0.148438 14.1465 0.519531 14.4805C0.853516 14.8516 1.26172 15 1.78125 15H17.2188C17.7012 15 18.1094 14.8516 18.4805 14.4805C18.8145 14.1465 19 13.7383 19 13.2188V5.64844C19 5.57422 18.9258 5.5 18.8516 5.42578C18.7773 5.38867 18.7031 5.38867 18.6289 5.46289ZM9.5 10.25C9.16602 10.25 8.75781 10.1016 8.3125 9.80469C8.01562 9.65625 7.64453 9.39648 7.16211 8.98828L6.79102 8.72852C3.74805 6.50195 1.66992 4.98047 0.59375 4.12695L0.333984 3.94141C0.111328 3.79297 0 3.5332 0 3.23633V2.53125C0 2.04883 0.148438 1.64062 0.519531 1.26953C0.853516 0.935547 1.26172 0.75 1.78125 0.75H17.2188C17.7012 0.75 18.1094 0.935547 18.4805 1.26953C18.8145 1.64062 19 2.04883 19 2.53125V3.23633C19 3.5332 18.8887 3.79297 18.666 3.94141L18.4805 4.08984C17.4043 4.94336 15.3262 6.50195 12.209 8.72852L11.8379 8.98828C11.3184 9.39648 10.9473 9.65625 10.6875 9.80469C10.2051 10.1016 9.79688 10.25 9.5 10.25Z" fill="#286BA6"/>
</svg>
