<svg width="25" height="25" viewBox="0 0 25 25" fill="none" xmlns="http://www.w3.org/2000/svg">
<path d="M12.8994 0C6.21696 0 0.798889 5.42397 0.798889 12.1094C0.798889 18.7987 6.21696 24.2188 12.8994 24.2188C19.5819 24.2188 25 18.7987 25 12.1094C25 5.42397 19.5819 0 12.8994 0ZM12.8994 5.37109C14.0312 5.37109 14.9487 6.28926 14.9487 7.42188C14.9487 8.55449 14.0312 9.47266 12.8994 9.47266C11.7676 9.47266 10.8502 8.55449 10.8502 7.42188C10.8502 6.28926 11.7676 5.37109 12.8994 5.37109ZM15.6318 17.7734C15.6318 18.097 15.3697 18.3594 15.0463 18.3594H10.7526C10.4292 18.3594 10.1671 18.097 10.1671 17.7734V16.6016C10.1671 16.278 10.4292 16.0156 10.7526 16.0156H11.3381V12.8906H10.7526C10.4292 12.8906 10.1671 12.6283 10.1671 12.3047V11.1328C10.1671 10.8092 10.4292 10.5469 10.7526 10.5469H13.8753C14.1986 10.5469 14.4608 10.8092 14.4608 11.1328V16.0156H15.0463C15.3697 16.0156 15.6318 16.278 15.6318 16.6016V17.7734Z" fill="#1F75C0"/>
</svg>
