<svg width="17" height="20" viewBox="0 0 17 20" fill="none" xmlns="http://www.w3.org/2000/svg">
<path d="M15.0312 8.6875C15.5137 8.6875 15.9219 8.87305 16.293 9.20703C16.627 9.57812 16.8125 9.98633 16.8125 10.4688V17.5938C16.8125 18.1133 16.627 18.5215 16.293 18.8555C15.9219 19.2266 15.5137 19.375 15.0312 19.375H1.96875C1.44922 19.375 1.04102 19.2266 0.707031 18.8555C0.335938 18.5215 0.1875 18.1133 0.1875 17.5938V10.4688C0.1875 9.98633 0.335938 9.57812 0.707031 9.20703C1.04102 8.87305 1.44922 8.6875 1.96875 8.6875H2.85938V6.01562C2.85938 5.01367 3.08203 4.08594 3.60156 3.19531C4.12109 2.3418 4.78906 1.67383 5.67969 1.1543C6.5332 0.634766 7.46094 0.375 8.5 0.375C9.50195 0.375 10.4297 0.634766 11.3203 1.1543C12.1738 1.67383 12.8418 2.3418 13.3613 3.19531C13.8809 4.08594 14.1406 5.01367 14.1406 6.01562V8.6875H15.0312ZM11.1719 8.6875V6.01562C11.1719 5.27344 10.9121 4.64258 10.3926 4.12305C9.87305 3.60352 9.24219 3.34375 8.5 3.34375C7.75781 3.34375 7.12695 3.60352 6.60742 4.12305C6.08789 4.64258 5.82812 5.27344 5.82812 6.01562V8.6875H11.1719Z" fill="#286BA6"/>
</svg>
